<svg width="30" height="30" viewBox="0 0 30 30" fill="none" xmlns="http://www.w3.org/2000/svg">
<rect width="30" height="30" rx="15" fill="black"/>
<path d="M5.684 21V20.244H5.918C6.194 20.244 6.44 20.214 6.656 20.154C6.884 20.094 7.064 19.974 7.196 19.794C7.328 19.602 7.394 19.32 7.394 18.948V10.128C7.394 9.768 7.322 9.504 7.178 9.336C7.046 9.156 6.866 9.042 6.638 8.994C6.422 8.934 6.182 8.904 5.918 8.904H5.684V8.148H10.742C12.254 8.148 13.37 8.484 14.09 9.156C14.81 9.816 15.17 10.734 15.17 11.91C15.17 12.45 15.086 12.966 14.918 13.458C14.75 13.938 14.474 14.37 14.09 14.754C13.718 15.138 13.22 15.444 12.596 15.672C11.984 15.888 11.234 15.996 10.346 15.996H9.212V19.038C9.212 19.386 9.278 19.65 9.41 19.83C9.554 19.998 9.734 20.112 9.95 20.172C10.178 20.22 10.424 20.244 10.688 20.244H11.282V21H5.684ZM10.166 15.15C10.706 15.15 11.168 15.096 11.552 14.988C11.948 14.868 12.266 14.682 12.506 14.43C12.758 14.178 12.938 13.854 13.046 13.458C13.166 13.05 13.226 12.558 13.226 11.982C13.226 11.31 13.136 10.758 12.956 10.326C12.776 9.882 12.482 9.552 12.074 9.336C11.666 9.12 11.12 9.012 10.436 9.012H9.212V15.15H10.166ZM19.6433 21.18C19.0433 21.18 18.5213 21.108 18.0773 20.964C17.6333 20.82 17.2853 20.61 17.0333 20.334C16.7933 20.046 16.6733 19.692 16.6733 19.272C16.6733 18.948 16.7393 18.696 16.8713 18.516C17.0033 18.336 17.1533 18.21 17.3213 18.138C17.5013 18.066 17.6633 18.03 17.8073 18.03C17.8073 18.45 17.8673 18.834 17.9873 19.182C18.1073 19.53 18.3113 19.806 18.5993 20.01C18.8873 20.214 19.2713 20.316 19.7513 20.316C20.3873 20.316 20.8733 20.166 21.2093 19.866C21.5573 19.554 21.7313 19.158 21.7313 18.678C21.7313 18.378 21.6653 18.132 21.5333 17.94C21.4133 17.748 21.1913 17.562 20.8673 17.382C20.5553 17.19 20.1053 16.968 19.5173 16.716C18.9053 16.44 18.3953 16.176 17.9873 15.924C17.5913 15.66 17.2913 15.36 17.0873 15.024C16.8953 14.676 16.7993 14.244 16.7993 13.728C16.7993 12.912 17.1053 12.288 17.7173 11.856C18.3413 11.412 19.1633 11.19 20.1833 11.19C20.7593 11.19 21.2393 11.268 21.6233 11.424C22.0193 11.568 22.3133 11.766 22.5053 12.018C22.7093 12.27 22.8113 12.546 22.8113 12.846C22.8113 13.17 22.6973 13.434 22.4693 13.638C22.2533 13.83 21.9353 13.926 21.5153 13.926C21.5153 13.326 21.3893 12.858 21.1373 12.522C20.8853 12.186 20.4953 12.018 19.9673 12.018C19.5593 12.018 19.2293 12.078 18.9773 12.198C18.7253 12.318 18.5393 12.486 18.4193 12.702C18.3113 12.918 18.2573 13.17 18.2573 13.458C18.2573 13.758 18.3293 14.01 18.4733 14.214C18.6293 14.418 18.8693 14.61 19.1933 14.79C19.5293 14.958 19.9613 15.15 20.4893 15.366C21.1253 15.63 21.6413 15.894 22.0373 16.158C22.4333 16.422 22.7213 16.728 22.9013 17.076C23.0933 17.424 23.1893 17.85 23.1893 18.354C23.1893 19.29 22.8653 19.998 22.2173 20.478C21.5693 20.946 20.7113 21.18 19.6433 21.18Z" fill="white"/>
</svg>
