<svg width="30" height="30" viewBox="0 0 30 30" fill="none" xmlns="http://www.w3.org/2000/svg">
<rect width="30" height="30" rx="15" fill="black"/>
<path d="M8.684 21V20.244H8.918C9.194 20.244 9.44 20.214 9.656 20.154C9.884 20.094 10.064 19.974 10.196 19.794C10.328 19.602 10.394 19.32 10.394 18.948V10.128C10.394 9.768 10.322 9.504 10.178 9.336C10.046 9.156 9.866 9.042 9.638 8.994C9.422 8.934 9.182 8.904 8.918 8.904H8.684V8.148H13.922V8.904H13.688C13.424 8.904 13.178 8.934 12.95 8.994C12.722 9.054 12.542 9.174 12.41 9.354C12.278 9.534 12.212 9.816 12.212 10.2V13.836H18.062V10.2C18.062 9.816 17.996 9.534 17.864 9.354C17.732 9.174 17.552 9.054 17.324 8.994C17.108 8.934 16.862 8.904 16.586 8.904H16.352V8.148H21.59V8.904H21.356C21.092 8.904 20.846 8.934 20.618 8.994C20.39 9.054 20.21 9.174 20.078 9.354C19.946 9.534 19.88 9.816 19.88 10.2V19.038C19.88 19.386 19.946 19.65 20.078 19.83C20.222 19.998 20.402 20.112 20.618 20.172C20.846 20.22 21.092 20.244 21.356 20.244H21.59V21H16.352V20.244H16.586C16.862 20.244 17.108 20.214 17.324 20.154C17.552 20.094 17.732 19.974 17.864 19.794C17.996 19.602 18.062 19.32 18.062 18.948V14.736H12.212V18.948C12.212 19.32 12.278 19.602 12.41 19.794C12.542 19.974 12.722 20.094 12.95 20.154C13.178 20.214 13.424 20.244 13.688 20.244H13.922V21H8.684Z" fill="white"/>
</svg>
